<svg width="52" height="46" viewBox="0 0 52 46" fill="none" xmlns="http://www.w3.org/2000/svg">
<g filter="url(#filter0_d_4704_13)">
<path d="M7.68437 8.42968C-6.31511 -8.06298 39.0003 8.42968 39.0003 8.42968C39.0003 8.42968 56.9996 45.0579 39.0003 34.0295C21.001 23.0011 7.68437 34.0295 7.68437 34.0295C7.68437 34.0295 21.6839 24.9223 7.68437 8.42968Z" fill="#C22C27"/>
<path d="M7.68437 8.42968C-6.31511 -8.06298 39.0003 8.42968 39.0003 8.42968C39.0003 8.42968 56.9996 45.0579 39.0003 34.0295C21.001 23.0011 7.68437 34.0295 7.68437 34.0295C7.68437 34.0295 21.6839 24.9223 7.68437 8.42968Z" fill="url(#paint0_linear_4704_13)"/>
</g>
<path d="M19 15.2115L20.9675 13.3817C23.2684 14.5025 24.728 15.3543 27.3135 17.2102C32.1752 11.657 35.3885 8.83936 41.3598 5.09961L42 6.58123C37.0751 10.9065 33.4689 15.7247 28.2757 25.0996C25.072 21.3029 22.934 18.8818 19 15.2115V15.2115Z" fill="white"/>
<defs>
<filter id="filter0_d_4704_13" x="0" y="0.0996094" width="52" height="45" filterUnits="userSpaceOnUse" color-interpolation-filters="sRGB">
<feFlood flood-opacity="0" result="BackgroundImageFix"/>
<feColorMatrix in="SourceAlpha" type="matrix" values="0 0 0 0 0 0 0 0 0 0 0 0 0 0 0 0 0 0 127 0" result="hardAlpha"/>
<feOffset dy="4"/>
<feGaussianBlur stdDeviation="2.5"/>
<feColorMatrix type="matrix" values="0 0 0 0 0.5125 0 0 0 0 0.5125 0 0 0 0 0.5125 0 0 0 0.25 0"/>
<feBlend mode="normal" in2="BackgroundImageFix" result="effect1_dropShadow_4704_13"/>
<feBlend mode="normal" in="SourceGraphic" in2="effect1_dropShadow_4704_13" result="shape"/>
</filter>
<linearGradient id="paint0_linear_4704_13" x1="26" y1="1.09961" x2="26" y2="36.0996" gradientUnits="userSpaceOnUse">
<stop stop-color="#FCC328"/>
<stop offset="1" stop-color="white" stop-opacity="0"/>
</linearGradient>
</defs>
</svg>
